<svg xmlns="http://www.w3.org/2000/svg" xmlns:xlink="http://www.w3.org/1999/xlink" width="36.951" height="33.998" viewBox="0 0 36.951 33.998"><defs><style>.a{fill:none;}.b{clip-path:url(#a);}.c{fill:url(#b);}.d{clip-path:url(#c);}.e{fill:#f16555;}</style><clipPath id="a"><path class="a" d="M17,0A17,17,0,0,0,0,17H0A17,17,0,0,0,17,34h0A17,17,0,0,0,34,17h0a17,17,0,0,0-.682-4.783h0L24.81,23.924a1.563,1.563,0,0,1-2.119.389h0a1.814,1.814,0,0,1-.8-.467h0l-4.837-4.837-5.782,6.652a1.823,1.823,0,0,1-2.3.377h0a1.814,1.814,0,0,1-.771-.459h0L4.972,22.347a1.823,1.823,0,0,1,0-2.578h0l.227-.227a1.823,1.823,0,0,1,2.578,0h0l1.9,1.9,5.872-6.755a1.821,1.821,0,0,1,1.67-.6h0a1.815,1.815,0,0,1,1.037.517h0l4.876,4.876L31.448,8.039A16.988,16.988,0,0,0,17,0Z" transform="translate(0 0.002)"/></clipPath><linearGradient id="b" x1="0.5" x2="0.5" y2="1" gradientUnits="objectBoundingBox"><stop offset="0" stop-color="#fd7552"/><stop offset="1" stop-color="#f92655"/></linearGradient><clipPath id="c"><path class="a" d="M0,0H3.871V3.871H0Z" transform="translate(0.079 0.105)"/></clipPath></defs><g transform="translate(0 -0.002)"><path class="a" d="M17,0A17,17,0,0,0,0,17H0A17,17,0,0,0,17,34h0A17,17,0,0,0,34,17h0a17,17,0,0,0-.682-4.783h0L24.81,23.924a1.563,1.563,0,0,1-2.119.389h0a1.814,1.814,0,0,1-.8-.467h0l-4.837-4.837-5.782,6.652a1.823,1.823,0,0,1-2.3.377h0a1.814,1.814,0,0,1-.771-.459h0L4.972,22.347a1.823,1.823,0,0,1,0-2.578h0l.227-.227a1.823,1.823,0,0,1,2.578,0h0l1.9,1.9,5.872-6.755a1.821,1.821,0,0,1,1.67-.6h0a1.815,1.815,0,0,1,1.037.517h0l4.876,4.876L31.448,8.039A16.988,16.988,0,0,0,17,0Z" transform="translate(0 0.002)"/><g class="b"><path class="c" d="M17,0A17,17,0,0,0,0,17H0A17,17,0,0,0,17,34h0A17,17,0,0,0,34,17h0a17,17,0,0,0-.682-4.783h0L24.81,23.924a1.563,1.563,0,0,1-2.119.389h0a1.814,1.814,0,0,1-.8-.467h0l-4.837-4.837-5.782,6.652a1.823,1.823,0,0,1-2.3.377h0a1.814,1.814,0,0,1-.771-.459h0L4.972,22.347a1.823,1.823,0,0,1,0-2.578h0l.227-.227a1.823,1.823,0,0,1,2.578,0h0l1.9,1.9,5.872-6.755a1.821,1.821,0,0,1,1.67-.6h0a1.815,1.815,0,0,1,1.037.517h0l4.876,4.876L31.448,8.039A16.988,16.988,0,0,0,17,0Z" transform="translate(0 0.002)"/></g><g transform="translate(33 6)"><path class="a" d="M0,0H3.871V3.871H0Z" transform="translate(0.079 0.105)"/><g class="d"><path class="e" d="M1.936,0A1.936,1.936,0,1,1,0,1.936,1.936,1.936,0,0,1,1.936,0" transform="translate(0.079 0.105)"/></g></g></g></svg>