<svg xmlns="http://www.w3.org/2000/svg" width="22.8" height="14.8" viewBox="0 0 22.8 14.8"><defs><style>.a{fill:#23a39b;stroke:#23a39b;stroke-miterlimit:10;stroke-width:0.8px;}</style></defs><g transform="translate(0.4 0.4)"><path class="a" d="M14.356,14H7.609a2.321,2.321,0,0,1-2.316-2.321v-.3a5.842,5.842,0,0,1,.049-.737H.017A.019.019,0,0,1,0,10.627V10.34A4.419,4.419,0,0,1,2.969,6.164a2.511,2.511,0,1,1,2.881,0,4.376,4.376,0,0,1,1.467.856,5.65,5.65,0,0,1,2.016-1.1,3.182,3.182,0,1,1,3.29,0,5.6,5.6,0,0,1,2.038,1.112,4.331,4.331,0,0,1,1.484-.872,2.512,2.512,0,1,1,2.882,0A4.439,4.439,0,0,1,22,10.34v.287a.019.019,0,0,1-.017.018H16.624a5.843,5.843,0,0,1,.048.737v.3A2.321,2.321,0,0,1,14.356,14Zm-3.53-7.623h0a5.006,5.006,0,0,0-4.845,5v.3A1.623,1.623,0,0,0,7.6,13.3h6.747a1.623,1.623,0,0,0,1.619-1.623v-.3a5.006,5.006,0,0,0-4.845-5c-.049,0-.1,0-.149,0s-.1,0-.148,0Zm6.734.237a3.71,3.71,0,0,0-2.394.9,5.752,5.752,0,0,1,1.318,2.425h4.793a3.711,3.711,0,0,0-3.666-3.328H17.56Zm-13.189,0A3.709,3.709,0,0,0,.706,9.942H5.463A5.749,5.749,0,0,1,6.8,7.5a3.694,3.694,0,0,0-2.372-.886H4.37ZM17.586,2.277a1.82,1.82,0,0,0-.035,3.639h.07a1.82,1.82,0,0,0-.035-3.639ZM4.4,2.277a1.82,1.82,0,0,0-.035,3.639h.07A1.82,1.82,0,0,0,4.4,2.277ZM10.969.7a2.491,2.491,0,0,0-.143,4.978h.287A2.491,2.491,0,0,0,10.969.7Z"/></g></svg>